<svg width="55" height="49" viewBox="0 0 55 49" fill="none" xmlns="http://www.w3.org/2000/svg">
<path id="Subtract" fillRule="evenodd" clipRule="evenodd" d="M31.085 0.435193C30.4036 0.147978 29.6706 -4.57263e-05 28.93 1.05957e-08H16.5L16.0875 0.0136115C14.7038 0.116629 13.4106 0.733559 12.4671 1.74073C11.5236 2.7479 10.9996 4.07088 11 5.44444V10.8889H5.5L5.0875 10.9025C3.70382 11.0055 2.41062 11.6224 1.46712 12.6296C0.523618 13.6368 -0.000438307 14.9598 2.75064e-07 16.3333V43.5556L0.0137511 43.9639C0.11782 45.3336 0.741045 46.6137 1.75849 47.5477C2.77594 48.4817 4.11242 49.0004 5.5 49H38.5L38.9125 48.9864C40.2962 48.8834 41.5894 48.2664 42.5329 47.2593C43.4764 46.2521 44.0004 44.9291 44 43.5556V38.1111H49.5L49.9125 38.0975C51.2962 37.9945 52.5894 37.3775 53.5329 36.3704C54.4764 35.3632 55.0004 34.0402 55 32.6667V12.25L54.9863 11.8417C54.8822 10.472 54.259 9.19182 53.2415 8.25785C52.2241 7.32388 50.8876 6.80512 49.5 6.80556H37.07L33.2255 2.04439L32.8955 1.67144C32.3823 1.1429 31.7665 0.722408 31.085 0.435193ZM16.5 5.44444H28.9272L32.7772 10.2083C33.2925 10.8453 33.9458 11.3596 34.6888 11.713C35.4319 12.0664 36.2456 12.2499 37.07 12.25H49.5V32.6667H44V23.1389C44 21.6949 43.4205 20.3101 42.3891 19.2891C41.3576 18.2681 39.9587 17.6944 38.5 17.6944H26.0728L22.2228 12.9306C21.7075 12.2935 21.0542 11.7793 20.3112 11.4259C19.5681 11.0725 18.7544 10.889 17.93 10.8889H16.5V5.44444ZM14.8427 33.78C15.216 34.1534 15.6827 34.34 16.2427 34.34H21.0377V38.925C21.0377 39.5784 21.2477 40.115 21.6677 40.535C22.111 40.955 22.6594 41.165 23.3127 41.165C23.9894 41.165 24.5377 40.955 24.9577 40.535C25.3777 40.115 25.5877 39.5784 25.5877 38.925V34.34H30.4877C31.0477 34.34 31.5144 34.165 31.8877 33.815C32.261 33.4417 32.4477 32.975 32.4477 32.415C32.4477 31.855 32.261 31.4 31.8877 31.05C31.5144 30.6767 31.0477 30.49 30.4877 30.49H25.5877V25.275C25.5877 24.6217 25.3777 24.085 24.9577 23.665C24.561 23.245 24.0244 23.035 23.3477 23.035C22.6944 23.035 22.146 23.245 21.7027 23.665C21.2594 24.085 21.0377 24.6217 21.0377 25.275V30.49H16.2427C15.6827 30.49 15.216 30.665 14.8427 31.015C14.4694 31.365 14.2827 31.82 14.2827 32.38C14.2827 32.94 14.4694 33.4067 14.8427 33.78Z" fill="#CECECE"/>
</svg>
