<svg width="54" height="57" viewBox="0 0 54 57" fill="none" xmlns="http://www.w3.org/2000/svg">
<g id="Vector">
<path d="M53.0376 23.2293C52.8524 23.7269 52.5154 24.1566 52.0725 24.4603C51.6296 24.7639 51.1021 24.9268 50.5616 24.9268H46.7404L31.3823 12.2612C30.0427 11.1576 28.3489 10.5521 26.5987 10.5512C24.8488 10.5522 23.1552 11.1577 21.8159 12.2612L6.45859 24.9252H2.63664C2.09607 24.9252 1.56858 24.7623 1.12566 24.4587C0.682747 24.1551 0.345827 23.7253 0.16056 23.2278C-0.0247701 22.7302 -0.0494545 22.1888 0.0898518 21.6769C0.229158 21.1651 0.525717 20.7077 0.939327 20.3666L24.9014 0.606706C25.3765 0.214865 25.9776 0 26.5987 0C27.2198 0 27.8209 0.214865 28.296 0.606706L52.2581 20.3666C52.6721 20.7077 52.9691 21.1654 53.1085 21.6775C53.248 22.1897 53.2232 22.7314 53.0376 23.2293Z" fill="#CECECE"/>
<path d="M52.2572 35.6133L28.2952 15.8534C27.82 15.4616 27.2189 15.2467 26.5979 15.2467C25.9768 15.2467 25.3757 15.4616 24.9005 15.8534L0.938486 35.6133C0.524876 35.9544 0.228317 36.4119 0.0890111 36.9237C-0.0502952 37.4355 -0.0256108 37.9769 0.159719 38.4745C0.344986 38.9721 0.681916 39.4018 1.12483 39.7054C1.56775 40.0091 2.09523 40.1719 2.6358 40.172H9.31882V54.4174C9.31882 55.1024 9.59652 55.7593 10.0908 56.2436C10.5851 56.7279 11.2556 57 11.9546 57H16.6137C17.3127 57 17.9832 56.7279 18.4775 56.2436C18.9718 55.7593 19.2495 55.1024 19.2495 54.4174V45.506C19.2492 45.2821 19.2991 45.0609 19.3958 44.8581C19.4924 44.6552 19.6333 44.4756 19.8086 44.3321L25.5946 39.5582C25.8761 39.3255 26.2324 39.1979 26.6007 39.1979C26.9689 39.1979 27.3252 39.3255 27.6067 39.5582L33.3927 44.3321C33.568 44.4756 33.709 44.6552 33.8056 44.858C33.9022 45.0609 33.9521 45.2821 33.9518 45.506V54.4174C33.9518 55.1024 34.2295 55.7593 34.7238 56.2436C35.2181 56.7279 35.8886 57 36.5876 57H41.2475C41.9465 57 42.617 56.7279 43.1113 56.2436C43.6056 55.7593 43.8833 55.1024 43.8833 54.4174V40.172H50.5655C51.1061 40.1719 51.6336 40.0091 52.0765 39.7054C52.5194 39.4018 52.8563 38.9721 53.0416 38.4745C53.2263 37.9764 53.2501 37.4346 53.1098 36.9228C52.9695 36.4109 52.6718 35.9537 52.2572 35.6133Z" fill="#CECECE"/>
</g>
</svg>
