<svg width="36" height="51" viewBox="0 0 36 51" fill="none" xmlns="http://www.w3.org/2000/svg">
<path id="Vector" d="M18 51C18 51 0 27.7185 0 17.85C-3.52233e-08 15.5059 0.465584 13.1848 1.37017 11.0191C2.27475 8.85344 3.60062 6.88567 5.27208 5.22814C6.94353 3.57062 8.92784 2.2558 11.1117 1.35875C13.2956 0.461704 15.6362 0 18 0C20.3638 0 22.7044 0.461704 24.8883 1.35875C27.0722 2.2558 29.0565 3.57062 30.7279 5.22814C32.3994 6.88567 33.7253 8.85344 34.6298 11.0191C35.5344 13.1848 36 15.5059 36 17.85C36 27.7185 18 51 18 51ZM18 22.95C19.364 22.95 20.6721 22.4127 21.6365 21.4562C22.601 20.4998 23.1429 19.2026 23.1429 17.85C23.1429 16.4974 22.601 15.2002 21.6365 14.2438C20.6721 13.2873 19.364 12.75 18 12.75C16.636 12.75 15.3279 13.2873 14.3635 14.2438C13.399 15.2002 12.8571 16.4974 12.8571 17.85C12.8571 19.2026 13.399 20.4998 14.3635 21.4562C15.3279 22.4127 16.636 22.95 18 22.95Z" fill="#D40000"/>
</svg>
