<svg width="54" height="49" viewBox="0 0 54 49" fill="none" xmlns="http://www.w3.org/2000/svg">
<path d="M22.0909 10.29C22.0909 5.635 19.1455 1.47 14.7273 0V9.065H7.36364V0C2.94545 1.47 0 5.635 0 10.29C0 14.945 2.94545 19.11 7.36364 20.58V47.53C7.36364 48.51 7.85455 49 8.59091 49H13.5C14.2364 49 14.7273 48.51 14.7273 47.775V20.825C19.1455 19.355 22.0909 15.19 22.0909 10.29ZM36.8182 14.7C27.2455 14.945 19.6364 22.54 19.6364 31.85C19.6364 41.405 27.2455 49 36.8182 49C46.3909 49 54 41.405 54 31.85C54 22.295 46.3909 14.7 36.8182 14.7ZM36.8182 44.1C29.9455 44.1 24.5455 38.71 24.5455 31.85C24.5455 24.99 29.9455 19.6 36.8182 19.6C43.6909 19.6 49.0909 24.99 49.0909 31.85C49.0909 38.71 43.6909 44.1 36.8182 44.1ZM34.3636 22.05V34.3L43.2 39.69L45.1636 36.75L38.0455 32.585V22.05H34.3636Z" fill="#CECECE"/>
</svg>
