<svg width="55" height="49" viewBox="0 0 55 49" fill="none" xmlns="http://www.w3.org/2000/svg">
<path d="M28.93 1.06056e-08C29.6706 -4.57475e-05 30.4036 0.147978 31.085 0.435193C31.7665 0.722408 32.3823 1.1429 32.8955 1.67144L33.2255 2.04439L37.07 6.80556H49.5C50.8876 6.80512 52.2241 7.32388 53.2415 8.25785C54.259 9.19182 54.8822 10.472 54.9863 11.8417L55 12.25V32.6667C55.0004 34.0402 54.4764 35.3632 53.5329 36.3704C52.5894 37.3776 51.2962 37.9945 49.9125 38.0975L49.5 38.1111H44V43.5556C44.0004 44.9291 43.4764 46.2521 42.5329 47.2593C41.5894 48.2664 40.2962 48.8834 38.9125 48.9864L38.5 49H5.5C4.11241 49.0004 2.77594 48.4817 1.75849 47.5477C0.741044 46.6137 0.117819 45.3336 0.0137506 43.9639L2.75737e-07 43.5556V16.3333C-0.000438843 14.9598 0.523618 13.6368 1.46712 12.6296C2.41062 11.6224 3.70382 11.0055 5.0875 10.9025L5.5 10.8889H11V5.44444C10.9996 4.07088 11.5236 2.7479 12.4671 1.74073C13.4106 0.733559 14.7038 0.116629 16.0875 0.0136114L16.5 1.06056e-08H28.93ZM28.93 5.44444H16.5V10.8889H17.93C18.7544 10.889 19.5681 11.0725 20.3112 11.4259C21.0542 11.7793 21.7075 12.2935 22.2228 12.9306L26.0728 17.6944H38.5C39.9587 17.6944 41.3576 18.2681 42.3891 19.2891C43.4205 20.3101 44 21.6949 44 23.1389V32.6667H49.5V12.25H37.07C36.2456 12.2499 35.4319 12.0664 34.6888 11.713C33.9458 11.3596 33.2925 10.8453 32.7772 10.2083L28.9272 5.44444H28.93Z" fill="#CECECE"/>
</svg>
