<svg width="77" height="52" viewBox="0 0 77 52" fill="none" xmlns="http://www.w3.org/2000/svg">
<path d="M69.7417 25.9953C70.2459 25.9974 70.7073 25.6946 70.8725 25.1988C70.9692 24.8976 71.0543 24.5931 71.1206 24.2858L71.1891 23.9512C71.2474 23.6366 71.2903 23.3151 71.3182 22.9945C71.3616 22.4746 71.0543 22.006 70.5918 21.7991L69.146 21.1471C69.0341 20.3949 68.8021 19.6496 68.4531 18.9655L69.2386 17.5548C69.4928 17.1044 69.4698 16.5377 69.1366 16.1484C68.9072 15.8698 68.6561 15.608 68.3869 15.359L68.3592 15.3333C68.09 15.0843 67.8106 14.8553 67.521 14.6463C67.1099 14.3471 66.5593 14.3904 66.1583 14.6975L64.8862 15.6655C64.1826 15.3831 63.4482 15.227 62.713 15.1954L61.9185 13.7822C61.6684 13.3297 61.184 13.0658 60.6892 13.1682C60.3842 13.2325 60.08 13.3122 59.7802 13.4034L59.4738 13.5105C59.1859 13.6127 58.9027 13.734 58.6204 13.8709C58.1659 14.0915 57.9261 14.5994 57.9805 15.1215L58.1582 16.7453C57.8774 16.9793 57.6057 17.2439 57.3543 17.5346C57.1029 17.8253 56.8787 18.1339 56.6814 18.4526L55.1014 18.4502C54.5972 18.4481 54.1358 18.7508 53.9706 19.2466C53.874 19.5479 53.7888 19.8523 53.719 20.1637L53.6536 20.4865C53.5918 20.8052 53.5524 21.1226 53.5285 21.4469C53.485 21.9668 53.7924 22.4354 54.2549 22.6422L55.7006 23.2943C55.8126 24.0465 56.0445 24.7918 56.3936 25.4758L55.6045 26.8907C55.3504 27.3411 55.3733 27.9077 55.7065 28.2971C55.9434 28.5752 56.1985 28.8406 56.4716 29.0934C56.7448 29.3461 57.0281 29.5787 57.3217 29.7914C57.7328 30.0906 58.2834 30.0473 58.6844 29.7402L59.9565 28.7722C60.6601 29.0546 61.3945 29.2107 62.1297 29.2423L62.9167 30.6559C63.1668 31.1084 63.6512 31.3723 64.146 31.2699C64.451 31.2057 64.7516 31.13 65.051 31.0311L65.365 30.9235C65.6529 30.8214 65.936 30.7 66.2148 30.5673C66.6693 30.3466 66.9091 29.8387 66.8547 29.3166L66.677 27.6929C66.9614 27.4547 67.233 27.1901 67.4844 26.8994C67.7359 26.6087 67.96 26.3001 68.1573 25.9814L69.7373 25.9839L69.7417 25.9953ZM60.5213 20.4647C60.9722 19.9435 61.6047 19.6288 62.2799 19.59C62.955 19.5511 63.6175 19.7912 64.1214 20.2575C64.6254 20.7237 64.9296 21.3779 64.9672 22.0762C65.0048 22.7745 64.7726 23.4595 64.3218 23.9808C63.8709 24.502 63.2384 24.8166 62.5632 24.8555C61.8881 24.8943 61.2257 24.6542 60.7217 24.188C60.2177 23.7217 59.9135 23.0675 59.8759 22.3692C59.8383 21.671 60.0705 20.9859 60.5213 20.4647ZM64.5757 48.1336C64.5737 48.655 64.8665 49.1323 65.3459 49.3031C65.6371 49.403 65.9315 49.4911 66.2286 49.5596L66.5522 49.6305C66.8564 49.6908 67.1672 49.7351 67.4772 49.764C67.9799 49.8089 68.4331 49.4911 68.633 49.0127L69.2635 47.5175C69.9908 47.4017 70.7115 47.1618 71.3729 46.8009L72.7409 47.6169C73.1764 47.8797 73.7243 47.856 74.1008 47.5114C74.3697 47.2664 74.6263 47.0026 74.8707 46.7201C75.1151 46.4376 75.34 46.1446 75.5456 45.841C75.835 45.4158 75.7931 44.8463 75.4961 44.4316L74.5637 43.1119C74.8368 42.3843 74.9877 41.6247 75.0183 40.8643L76.3851 40.0503C76.8226 39.7917 77.0778 39.2907 76.9788 38.779C76.9167 38.4636 76.8395 38.149 76.7514 37.8389L76.6478 37.522C76.549 37.2242 76.4317 36.9314 76.2994 36.6395C76.086 36.1693 75.5949 35.9214 75.0901 35.9777L73.5201 36.1614C73.2898 35.8673 73.034 35.5864 72.7529 35.3263C72.4718 35.0663 72.1735 34.8345 71.8653 34.6304L71.8677 32.9963C71.8697 32.4749 71.5769 31.9977 71.0975 31.8268C70.8062 31.7269 70.5119 31.6388 70.2108 31.5666L69.8987 31.499C69.5906 31.435 69.2837 31.3944 68.9701 31.3696C68.4674 31.3246 68.0143 31.6425 67.8143 32.1209L67.1838 33.6161C66.4565 33.7318 65.7359 33.9717 65.0744 34.3327L63.71 33.5126C63.2745 33.2497 62.7266 33.2735 62.3501 33.6181C62.0812 33.8631 61.8245 34.1268 61.5802 34.4093C61.3358 34.6918 61.1108 34.9849 60.9052 35.2885C60.6159 35.7137 60.6578 36.2831 60.9548 36.6979L61.8907 38.0135C61.6177 38.7411 61.4667 39.5007 61.4361 40.2611L60.0693 41.075C59.6318 41.3336 59.3766 41.8346 59.4757 42.3464C59.5378 42.6618 59.6109 42.9727 59.7066 43.2823L59.8106 43.607C59.9094 43.9048 60.0267 44.1976 60.155 44.4859C60.3684 44.956 60.8595 45.204 61.3643 45.1477L62.9343 44.964C63.1646 45.2581 63.4205 45.539 63.7015 45.7991C63.9826 46.0591 64.281 46.2909 64.5891 46.4949L64.5868 48.1291L64.5757 48.1336ZM69.9233 38.5977C70.1729 38.8285 70.376 39.108 70.5211 39.42C70.6662 39.7321 70.7505 40.0706 70.7691 40.4164C70.7877 40.7621 70.7403 41.1083 70.6295 41.4351C70.5188 41.7618 70.3469 42.0629 70.1237 42.3209C69.9005 42.579 69.6303 42.7891 69.3285 42.9392C69.0268 43.0893 68.6994 43.1764 68.3651 43.1957C68.0308 43.2149 67.6961 43.1659 67.3802 43.0513C67.0642 42.9368 66.7731 42.759 66.5236 42.5282C66.2741 42.2973 66.0709 42.0178 65.9258 41.7058C65.7807 41.3937 65.6964 41.0552 65.6778 40.7094C65.6592 40.3637 65.7066 40.0175 65.8174 39.6908C65.9281 39.364 66.1 39.0629 66.3232 38.8049C66.5465 38.5468 66.8167 38.3367 67.1184 38.1866C67.4201 38.0365 67.7475 37.9494 68.0818 37.9301C68.4161 37.9109 68.7508 37.9599 69.0668 38.0745C69.3827 38.189 69.6738 38.3668 69.9233 38.5977Z" fill="#CECECE"/>
<path fillRule="evenodd" clipRule="evenodd" d="M25.0135 0H24.7547C22.5177 0 20.6538 1.06815e-07 19.1757 0.199119C17.613 0.408193 16.2021 0.871143 15.0698 2.00363C13.9351 3.1386 13.4723 4.54986 13.2632 6.11045C13.1214 7.17324 13.0791 9.70951 13.0692 11.8849C8.03758 12.0516 5.01415 12.639 2.91642 14.7397C-2.84776e-07 17.6543 0 22.3486 0 31.7345C0 41.1204 -2.84776e-07 45.8147 2.91642 48.7293C5.83036 51.6463 10.5235 51.6463 19.9073 51.6463H29.861C39.2448 51.6463 43.9379 51.6463 46.8519 48.7293C49.7683 45.8147 49.7683 41.1204 49.7683 31.7345C49.7683 22.3486 49.7683 17.6543 46.8519 14.7397C44.7541 12.639 41.7307 12.0516 36.6991 11.8874C36.6892 9.70951 36.6494 7.17324 36.505 6.11294C36.296 4.54986 35.8332 3.1386 34.6985 2.00612C33.5662 0.871143 32.1553 0.408193 30.5926 0.199119C29.1145 1.06815e-07 27.2481 0 25.0135 0ZM32.9665 11.8276C32.9541 9.71947 32.9192 7.45201 32.8073 6.60824C32.6505 5.46082 32.3842 4.968 32.0607 4.64444C31.7372 4.32087 31.2445 4.05455 30.0949 3.89774C28.8955 3.73845 27.283 3.73347 24.8841 3.73347C22.4853 3.73347 20.8728 3.73845 19.6709 3.90023C18.5238 4.05455 18.0311 4.32087 17.7076 4.64693C17.3841 4.97049 17.1178 5.46082 16.961 6.60824C16.8491 7.4545 16.8117 9.71947 16.8018 11.8276C17.7747 11.8227 18.8124 11.8227 19.9073 11.8227H29.861C30.9584 11.8227 31.9935 11.8227 32.9665 11.8276ZM24.8841 19.9118C25.3791 19.9118 25.8538 20.1085 26.2038 20.4586C26.5538 20.8087 26.7505 21.2835 26.7505 21.7786V21.8035C29.4603 22.4854 31.7273 24.6235 31.7273 27.5854C31.7273 28.0805 31.5307 28.5553 31.1807 28.9053C30.8307 29.2554 30.356 29.4521 29.861 29.4521C29.366 29.4521 28.8913 29.2554 28.5413 28.9053C28.1913 28.5553 27.9947 28.0805 27.9947 27.5854C27.9947 26.6296 26.9346 25.3055 24.8841 25.3055C22.8337 25.3055 21.7736 26.6296 21.7736 27.5854C21.7736 28.5411 22.8337 29.8678 24.8841 29.8678C28.3306 29.8678 31.7273 32.2572 31.7273 35.8836C31.7273 38.8455 29.4603 40.9811 26.7505 41.6655V41.6904C26.7505 42.1855 26.5538 42.6603 26.2038 43.0104C25.8538 43.3605 25.3791 43.5572 24.8841 43.5572C24.3892 43.5572 23.9145 43.3605 23.5645 43.0104C23.2145 42.6603 23.0178 42.1855 23.0178 41.6904V41.6655C20.308 40.9836 18.041 38.8455 18.041 35.8836C18.041 35.3885 18.2376 34.9137 18.5876 34.5636C18.9376 34.2136 19.4123 34.0169 19.9073 34.0169C20.4023 34.0169 20.877 34.2136 21.227 34.5636C21.577 34.9137 21.7736 35.3885 21.7736 35.8836C21.7736 36.8394 22.8337 38.1635 24.8841 38.1635C26.9346 38.1635 27.9947 36.8394 27.9947 35.8836C27.9947 34.9279 26.9346 33.6012 24.8841 33.6012C21.4377 33.6012 18.041 31.2118 18.041 27.5854C18.041 24.6235 20.308 22.4854 23.0178 21.8035V21.7786C23.0178 21.2835 23.2145 20.8087 23.5645 20.4586C23.9145 20.1085 24.3892 19.9118 24.8841 19.9118Z" fill="#CECECE"/>
</svg>
