<svg width="26" height="26" viewBox="0 0 26 26" fill="none" xmlns="http://www.w3.org/2000/svg">
<path id="Polygon 3" d="M25.6241 21.9255L20.5353 17.1124C20.3057 16.8951 19.9993 16.7794 19.6814 16.7882L18.8719 16.8107C20.194 15.0199 20.9473 12.7926 20.8807 10.3943C20.7224 4.68909 15.9705 0.194625 10.2643 0.352986C4.55806 0.511348 0.0627762 5.26245 0.221113 10.9677C0.379447 16.6729 5.13132 21.1674 10.8375 21.009C13.2362 20.9425 15.4186 20.067 17.1337 18.6479L17.1562 19.4572C17.165 19.775 17.2975 20.0744 17.5272 20.2917L22.616 25.1048C23.0957 25.5586 23.8506 25.5376 24.2995 25.0581L25.666 23.6138C26.1198 23.1341 26.0989 22.3794 25.6241 21.9255ZM10.7273 17.0367C7.21616 17.1342 4.29167 14.3729 4.19411 10.8574C4.09668 7.3469 6.85842 4.42289 10.3745 4.32531C13.8857 4.22786 16.8101 6.9891 16.9077 10.5046C17.0051 14.0151 14.2434 16.9391 10.7273 17.0367Z" fill="white"/>
</svg>
