<svg width="140" height="110" viewBox="0 0 140 110" fill="none" xmlns="http://www.w3.org/2000/svg">
<path d="M69.6115 62.19C61.7072 62.19 55.2715 55.7634 55.2715 47.86C55.2715 39.9562 61.7076 33.52 69.6115 33.52C77.5153 33.52 83.9515 39.9562 83.9515 47.86C83.9515 55.7634 77.5158 62.19 69.6115 62.19ZM80.1515 47.86C80.1515 42.0439 75.4276 37.32 69.6115 37.32C63.795 37.32 59.0715 42.0542 59.0715 47.86C59.0715 53.6665 63.7957 58.39 69.6115 58.39C75.427 58.39 80.1515 53.6768 80.1515 47.86Z" fill="#1E1E1E" stroke="#1E1E1E"/>
<path d="M54.1716 105.56H54.6716V105.06V88.8399C54.6716 87.7861 55.5177 86.9399 56.5716 86.9399C57.6255 86.9399 58.4716 87.7861 58.4716 88.8399V107.46C58.4716 108.514 57.6255 109.36 56.5716 109.36H56.5715H56.5715H56.5714H56.5714H56.5713H56.5712H56.5712H56.5711H56.5711H56.571H56.571H56.5709H56.5708H56.5708H56.5707H56.5707H56.5706H56.5705H56.5705H56.5704H56.5704H56.5703H56.5703H56.5702H56.5701H56.5701H56.57H56.57H56.5699H56.5698H56.5698H56.5697H56.5697H56.5696H56.5696H56.5695H56.5694H56.5694H56.5693H56.5693H56.5692H56.5691H56.5691H56.569H56.569H56.5689H56.5689H56.5688H56.5687H56.5687H56.5686H56.5686H56.5685H56.5684H56.5684H56.5683H56.5683H56.5682H56.5682H56.5681H56.568H56.568H56.5679H56.5679H56.5678H56.5678H56.5677H56.5676H56.5676H56.5675H56.5675H56.5674H56.5674H56.5673H56.5672H56.5672H56.5671H56.5671H56.567H56.567H56.5669H56.5668H56.5668H56.5667H56.5667H56.5666H56.5666H56.5665H56.5664H56.5664H56.5663H56.5663H56.5662H56.5662H56.5661H56.566H56.566H56.5659H56.5659H56.5658H56.5658H56.5657H56.5656H56.5656H56.5655H56.5655H56.5654H56.5654H56.5653H56.5653H56.5652H56.5651H56.5651H56.565H56.565H56.5649H56.5649H56.5648H56.5648H56.5647H56.5646H56.5646H56.5645H56.5645H56.5644H56.5644H56.5643H56.5643H56.5642H56.5641H56.5641H56.564H56.564H56.5639H56.5639H56.5638H56.5638H56.5637H56.5637H56.5636H56.5635H56.5635H56.5634H56.5634H56.5633H56.5633H56.5632H56.5632H56.5631H56.5631H56.563H56.563H56.5629H56.5628H56.5628H56.5627H56.5627H56.5626H56.5626H56.5625H56.5625H56.5624H56.5624H56.5623H56.5623H56.5622H56.5622H56.5621H56.5621H56.562H56.562H56.5619H56.5619H56.5618H56.5617H56.5617H56.5616H56.5616H56.5615H56.5615H56.5614H56.5614H56.5613H56.5613H56.5612H56.5612H56.5611H56.5611H56.561H56.561H56.5609H56.5609H56.5608H56.5608H56.5607H56.5607H56.5606H56.5606H56.5605H56.5605H56.5604H56.5604H56.5603H56.5603H56.5602H56.5602H56.5601H56.5601H56.56H56.56H56.5599H56.5599H56.5598H56.5598H56.5597H56.5597H56.5596H56.5596H56.5596H56.5595H56.5595H56.5594H56.5594H56.5593H56.5593H56.5592H56.5592H56.5591H56.5591H56.559H56.559H56.5589H56.5589H56.5588H56.5588H56.5588H56.5587H56.5587H56.5586H56.5586H56.5585H56.5585H56.5584H56.5584H56.5583H56.5583H56.5583H56.5582H56.5582H56.5581H56.5581H56.558H56.558H56.5579H56.5579H56.5579H56.5578H56.5578H56.5577H56.5577H56.5576H56.5576H56.5575H56.5575H56.5575H56.5574H56.5574H56.5573H56.5573H56.5572H56.5572H56.5572H56.5571H56.5571H56.557H56.557H56.557H56.5569H56.5569H56.5568H56.5568H56.5567H56.5567H56.5567H56.5566H56.5566H56.5565H56.5565H56.5565H56.5564H56.5564H56.5563H56.5563H56.5563H56.5562H56.5562H56.5562H56.5561H56.5561H56.556H56.556H56.556H56.5559H56.5559H56.5558H56.5558H56.5558H56.5557H56.5557H56.5557H56.5556H56.5556H56.5555H56.5555H56.5555H56.5554H56.5554H56.5554H56.5553H56.5553H56.5553H56.5552H56.5552H56.5552H56.5551H56.5551H56.555H56.555H56.555H56.5549H56.5549H56.5549H56.5548H56.5548H56.5548H56.5547H56.5547H56.5547H56.5546H56.5546H56.5546H56.5545H56.5545H56.5545H56.5544H56.5544H56.5544H56.5544H56.5543H56.5543H56.5543H56.5542H56.5542H56.5542H56.5541H56.5541H56.5541H56.554H56.554H56.554H56.554H56.5539H56.5539H56.5539H56.5538H56.5538H56.5538H56.5538H56.5537H56.5536H56.5536H56.5535H56.5535H56.5534H56.5534H56.5533H56.5533H56.5532H56.5532H56.5531H56.5531H56.553H56.553H56.5529H56.5529H56.5528H56.5528H56.5528H56.5527H56.5527H56.5526H56.5526H56.5526H56.5525H56.5525H56.5524H56.5524H56.5524H56.5523H56.5523H56.5523H56.5522H56.5522H56.5522H56.5521H56.5521H56.5521H56.552H56.552H56.552H56.5519H56.5519H56.5519H56.5518H56.5518H56.5518H56.5517H56.5517H56.5517H56.5516H56.5516H50.7616C45.7294 109.36 41.6416 105.255 41.6416 100.21V75.3199C41.6416 70.2754 45.7384 66.1799 50.7616 66.1799H88.4216C93.4668 66.1799 97.5816 70.2774 97.5816 75.3199V100.21C97.5816 105.253 93.4758 109.36 88.4216 109.36H82.6316C81.5777 109.36 80.7316 108.514 80.7316 107.46V88.8399C80.7316 87.7861 81.5777 86.9399 82.6316 86.9399C83.6855 86.9399 84.5316 87.7861 84.5316 88.8399V105.06V105.56H85.0316H88.4216C91.3764 105.56 93.7816 103.167 93.7816 100.21V75.3199C93.7816 72.3731 91.3771 69.9699 88.4216 69.9699H50.7616C47.8221 69.9699 45.4416 72.3772 45.4416 75.3199V100.21C45.4416 103.153 47.8221 105.56 50.7616 105.56H54.1716Z" fill="#1E1E1E" stroke="#1E1E1E"/>
<path d="M110.711 54.0401C102.807 54.0401 96.3711 47.6135 96.3711 39.7101C96.3711 31.8063 102.807 25.3701 110.711 25.3701C118.615 25.3701 125.051 31.8063 125.051 39.7101C125.051 47.6135 118.615 54.0401 110.711 54.0401ZM121.251 39.7101C121.251 33.8936 116.517 29.1701 110.711 29.1701C104.905 29.1701 100.171 33.904 100.171 39.7101C100.171 45.5166 104.895 50.2401 110.711 50.2401C116.527 50.2401 121.251 45.5269 121.251 39.7101Z" fill="#1E1E1E" stroke="#1E1E1E"/>
<path d="M66.5413 14.84C66.5413 22.7434 60.1056 29.17 52.2013 29.17C44.297 29.17 37.8613 22.7434 37.8613 14.84C37.8613 6.93614 44.2975 0.5 52.2013 0.5C60.1052 0.5 66.5413 6.93614 66.5413 14.84ZM62.7413 14.84C62.7413 9.02386 58.0175 4.3 52.2013 4.3C46.3849 4.3 41.6613 9.03418 41.6613 14.84C41.6613 20.6465 46.3855 25.37 52.2013 25.37C58.0168 25.37 62.7413 20.6568 62.7413 14.84Z" fill="#1E1E1E" stroke="#1E1E1E"/>
<path d="M101.341 14.84C101.341 22.7434 94.9054 29.17 87.0011 29.17C79.0968 29.17 72.6611 22.7434 72.6611 14.84C72.6611 6.93592 79.0875 0.5 87.0011 0.5C94.9148 0.5 101.341 6.93592 101.341 14.84ZM97.5411 14.84C97.5411 9.02386 92.8173 4.3 87.0011 4.3C81.1847 4.3 76.4611 9.03418 76.4611 14.84C76.4611 20.6465 81.1853 25.37 87.0011 25.37C92.8166 25.37 97.5411 20.6568 97.5411 14.84Z" fill="#1E1E1E" stroke="#1E1E1E"/>
<path d="M125.642 96.91V97.41H126.142H129.532C132.486 97.41 134.892 95.0175 134.892 92.06V67.18C134.892 64.2332 132.487 61.83 129.532 61.83H91.8717C90.8178 61.83 89.9717 60.9839 89.9717 59.93C89.9717 58.8762 90.8178 58.03 91.8717 58.03H129.532C134.586 58.03 138.692 62.1365 138.692 67.18V92.06C138.692 97.1035 134.586 101.21 129.532 101.21H123.742C122.689 101.21 121.842 100.355 121.842 99.31V80.68C121.842 79.6262 122.688 78.78 123.742 78.78C124.796 78.78 125.642 79.6262 125.642 80.68V96.91Z" fill="#1E1E1E" stroke="#1E1E1E"/>
<path d="M42.8411 39.7101C42.8411 47.6135 36.4054 54.0401 28.5011 54.0401C20.5968 54.0401 14.1611 47.6135 14.1611 39.7101C14.1611 31.8063 20.5973 25.3701 28.5011 25.3701C36.405 25.3701 42.8411 31.8063 42.8411 39.7101ZM39.0411 39.7101C39.0411 33.894 34.3173 29.1701 28.5011 29.1701C22.6847 29.1701 17.9611 33.9043 17.9611 39.7101C17.9611 45.5166 22.6853 50.2401 28.5011 50.2401C34.3166 50.2401 39.0411 45.5269 39.0411 39.7101Z" fill="#1E1E1E" stroke="#1E1E1E"/>
<path d="M13.0715 97.42H13.5715V96.92V80.69C13.5715 79.6375 14.4263 78.79 15.4715 78.79C16.5253 78.79 17.3715 79.6362 17.3715 80.69V99.32C17.3715 100.374 16.5253 101.22 15.4715 101.22H9.68148C4.62729 101.22 0.521484 97.1136 0.521484 92.07V67.19C0.521484 62.1465 4.62729 58.04 9.68148 58.04H47.3415C48.3953 58.04 49.2415 58.8862 49.2415 59.94C49.2415 60.9925 48.3867 61.84 47.3415 61.84H9.68148C6.72668 61.84 4.32148 64.2326 4.32148 67.19V92.07C4.32148 95.0168 6.72601 97.42 9.68148 97.42H13.0715Z" fill="#1E1E1E" stroke="#1E1E1E"/>
</svg>
