<svg width="58" height="77" viewBox="0 0 58 77" fill="none" xmlns="http://www.w3.org/2000/svg">
<path d="M28.9904 29.17C21.0861 29.17 14.6504 22.7434 14.6504 14.84C14.6504 6.93614 21.0865 0.5 28.9904 0.5C36.8942 0.5 43.3304 6.93614 43.3304 14.84C43.3304 22.7434 36.8947 29.17 28.9904 29.17ZM39.5304 14.84C39.5304 9.02386 34.8065 4.3 28.9904 4.3C23.1739 4.3 18.4504 9.03418 18.4504 14.84C18.4504 20.6465 23.1746 25.37 28.9904 25.37C34.8059 25.37 39.5304 20.6568 39.5304 14.84Z" fill="#1E1E1E" stroke="#1E1E1E"/>
<path d="M13.5603 72.5399H14.0603V72.0399V55.8199C14.0603 54.7661 14.9064 53.9199 15.9603 53.9199C17.0141 53.9199 17.8603 54.7661 17.8603 55.8199V74.4399C17.8603 75.4938 17.0141 76.3399 15.9603 76.3399H15.9602H15.9602H15.9601H15.96H15.96H15.9599H15.9599H15.9598H15.9597H15.9597H15.9596H15.9596H15.9595H15.9595H15.9594H15.9593H15.9593H15.9592H15.9592H15.9591H15.959H15.959H15.9589H15.9589H15.9588H15.9588H15.9587H15.9586H15.9586H15.9585H15.9585H15.9584H15.9583H15.9583H15.9582H15.9582H15.9581H15.9581H15.958H15.9579H15.9579H15.9578H15.9578H15.9577H15.9576H15.9576H15.9575H15.9575H15.9574H15.9574H15.9573H15.9572H15.9572H15.9571H15.9571H15.957H15.9569H15.9569H15.9568H15.9568H15.9567H15.9567H15.9566H15.9565H15.9565H15.9564H15.9564H15.9563H15.9563H15.9562H15.9561H15.9561H15.956H15.956H15.9559H15.9559H15.9558H15.9557H15.9557H15.9556H15.9556H15.9555H15.9555H15.9554H15.9553H15.9553H15.9552H15.9552H15.9551H15.9551H15.955H15.9549H15.9549H15.9548H15.9548H15.9547H15.9547H15.9546H15.9545H15.9545H15.9544H15.9544H15.9543H15.9543H15.9542H15.9542H15.9541H15.954H15.954H15.9539H15.9539H15.9538H15.9538H15.9537H15.9536H15.9536H15.9535H15.9535H15.9534H15.9534H15.9533H15.9533H15.9532H15.9531H15.9531H15.953H15.953H15.9529H15.9529H15.9528H15.9528H15.9527H15.9527H15.9526H15.9525H15.9525H15.9524H15.9524H15.9523H15.9523H15.9522H15.9522H15.9521H15.9521H15.952H15.952H15.9519H15.9518H15.9518H15.9517H15.9517H15.9516H15.9516H15.9515H15.9515H15.9514H15.9514H15.9513H15.9513H15.9512H15.9512H15.9511H15.951H15.951H15.9509H15.9509H15.9508H15.9508H15.9507H15.9507H15.9506H15.9506H15.9505H15.9505H15.9504H15.9504H15.9503H15.9503H15.9502H15.9502H15.9501H15.9501H15.95H15.95H15.9499H15.9499H15.9498H15.9498H15.9497H15.9497H15.9496H15.9496H15.9495H15.9495H15.9494H15.9494H15.9493H15.9493H15.9492H15.9492H15.9491H15.9491H15.949H15.949H15.9489H15.9489H15.9488H15.9488H15.9487H15.9487H15.9486H15.9486H15.9485H15.9485H15.9484H15.9484H15.9483H15.9483H15.9482H15.9482H15.9481H15.9481H15.948H15.948H15.9479H15.9479H15.9478H15.9478H15.9478H15.9477H15.9477H15.9476H15.9476H15.9475H15.9475H15.9474H15.9474H15.9473H15.9473H15.9472H15.9472H15.9471H15.9471H15.9471H15.947H15.947H15.9469H15.9469H15.9468H15.9468H15.9467H15.9467H15.9467H15.9466H15.9466H15.9465H15.9465H15.9464H15.9464H15.9463H15.9463H15.9463H15.9462H15.9462H15.9461H15.9461H15.946H15.946H15.946H15.9459H15.9459H15.9458H15.9458H15.9458H15.9457H15.9457H15.9456H15.9456H15.9455H15.9455H15.9455H15.9454H15.9454H15.9453H15.9453H15.9453H15.9452H15.9452H15.9451H15.9451H15.9451H15.945H15.945H15.9449H15.9449H15.9449H15.9448H15.9448H15.9447H15.9447H15.9447H15.9446H15.9446H15.9446H15.9445H15.9445H15.9444H15.9444H15.9444H15.9443H15.9443H15.9443H15.9442H15.9442H15.9441H15.9441H15.9441H15.944H15.944H15.944H15.9439H15.9439H15.9439H15.9438H15.9438H15.9438H15.9437H15.9437H15.9436H15.9436H15.9436H15.9435H15.9435H15.9435H15.9434H15.9434H15.9434H15.9433H15.9433H15.9433H15.9432H15.9432H15.9432H15.9432H15.9431H15.9431H15.9431H15.943H15.943H15.943H15.9429H15.9429H15.9429H15.9428H15.9428H15.9428H15.9427H15.9427H15.9427H15.9427H15.9426H15.9426H15.9425H15.9425H15.9424H15.9424H15.9423H15.9423H15.9422H15.9421H15.9421H15.942H15.942H15.9419H15.9419H15.9418H15.9418H15.9417H15.9417H15.9417H15.9416H15.9416H15.9415H15.9415H15.9414H15.9414H15.9413H15.9413H15.9413H15.9412H15.9412H15.9411H15.9411H15.9411H15.941H15.941H15.941H15.9409H15.9409H15.9409H15.9408H15.9408H15.9408H15.9407H15.9407H15.9407H15.9406H15.9406H15.9405H15.9405H15.9405H15.9405H15.9404H15.9404H15.9404H15.9403H15.9403H10.1503C5.1181 76.3399 1.03027 72.2355 1.03027 67.1899V42.2999C1.03027 37.2554 5.12709 33.1599 10.1503 33.1599H47.8103C52.8555 33.1599 56.9703 37.2574 56.9703 42.2999V67.1899C56.9703 72.2334 52.8645 76.3399 47.8103 76.3399H42.0203C40.9664 76.3399 40.1203 75.4938 40.1203 74.4399V55.8199C40.1203 54.7661 40.9664 53.9199 42.0203 53.9199C43.0741 53.9199 43.9203 54.7661 43.9203 55.8199V72.0399V72.5399H44.4203H47.8103C50.7651 72.5399 53.1703 70.1474 53.1703 67.1899V42.2999C53.1703 39.3531 50.7657 36.9499 47.8103 36.9499H10.1503C7.21077 36.9499 4.83027 39.3571 4.83027 42.2999V67.1899C4.83027 70.1327 7.21077 72.5399 10.1503 72.5399H13.5603Z" fill="#1E1E1E" stroke="#1E1E1E"/>
</svg>
