<svg width="100" height="85" viewBox="0 0 100 85" fill="none" xmlns="http://www.w3.org/2000/svg">
<path d="M29.4347 37.3199C21.5304 37.3199 15.0947 30.8933 15.0947 22.9899C15.0947 15.086 21.5309 8.6499 29.4347 8.6499C37.3386 8.6499 43.7747 15.086 43.7747 22.9899C43.7747 30.8933 37.339 37.3199 29.4347 37.3199ZM39.9747 22.9899C39.9747 17.1738 35.2509 12.4499 29.4347 12.4499C23.6183 12.4499 18.8947 17.1841 18.8947 22.9899C18.8947 28.7964 23.6189 33.5199 29.4347 33.5199C35.2502 33.5199 39.9747 28.8067 39.9747 22.9899Z" fill="#1E1E1E" stroke="#1E1E1E"/>
<path d="M14.0046 80.6901H14.5046V80.1901V63.9701C14.5046 62.9162 15.3508 62.0701 16.4046 62.0701C17.4585 62.0701 18.3046 62.9162 18.3046 63.9701V82.5901C18.3046 83.6439 17.4585 84.4901 16.4046 84.4901H16.4046H16.4045H16.4044H16.4044H16.4043H16.4043H16.4042H16.4041H16.4041H16.404H16.404H16.4039H16.4038H16.4038H16.4037H16.4037H16.4036H16.4036H16.4035H16.4034H16.4034H16.4033H16.4033H16.4032H16.4031H16.4031H16.403H16.403H16.4029H16.4029H16.4028H16.4027H16.4027H16.4026H16.4026H16.4025H16.4024H16.4024H16.4023H16.4023H16.4022H16.4022H16.4021H16.402H16.402H16.4019H16.4019H16.4018H16.4017H16.4017H16.4016H16.4016H16.4015H16.4015H16.4014H16.4013H16.4013H16.4012H16.4012H16.4011H16.4011H16.401H16.4009H16.4009H16.4008H16.4008H16.4007H16.4006H16.4006H16.4005H16.4005H16.4004H16.4004H16.4003H16.4002H16.4002H16.4001H16.4001H16.4H16.4H16.3999H16.3998H16.3998H16.3997H16.3997H16.3996H16.3996H16.3995H16.3994H16.3994H16.3993H16.3993H16.3992H16.3992H16.3991H16.3991H16.399H16.3989H16.3989H16.3988H16.3988H16.3987H16.3987H16.3986H16.3985H16.3985H16.3984H16.3984H16.3983H16.3983H16.3982H16.3982H16.3981H16.398H16.398H16.3979H16.3979H16.3978H16.3978H16.3977H16.3977H16.3976H16.3975H16.3975H16.3974H16.3974H16.3973H16.3973H16.3972H16.3972H16.3971H16.397H16.397H16.3969H16.3969H16.3968H16.3968H16.3967H16.3967H16.3966H16.3966H16.3965H16.3964H16.3964H16.3963H16.3963H16.3962H16.3962H16.3961H16.3961H16.396H16.396H16.3959H16.3959H16.3958H16.3958H16.3957H16.3956H16.3956H16.3955H16.3955H16.3954H16.3954H16.3953H16.3953H16.3952H16.3952H16.3951H16.3951H16.395H16.395H16.3949H16.3949H16.3948H16.3948H16.3947H16.3947H16.3946H16.3945H16.3945H16.3944H16.3944H16.3943H16.3943H16.3942H16.3942H16.3941H16.3941H16.394H16.394H16.3939H16.3939H16.3938H16.3938H16.3937H16.3937H16.3936H16.3936H16.3935H16.3935H16.3934H16.3934H16.3933H16.3933H16.3932H16.3932H16.3931H16.3931H16.393H16.393H16.3929H16.3929H16.3928H16.3928H16.3928H16.3927H16.3927H16.3926H16.3926H16.3925H16.3925H16.3924H16.3924H16.3923H16.3923H16.3922H16.3922H16.3921H16.3921H16.392H16.392H16.3919H16.3919H16.3919H16.3918H16.3918H16.3917H16.3917H16.3916H16.3916H16.3915H16.3915H16.3914H16.3914H16.3913H16.3913H16.3913H16.3912H16.3912H16.3911H16.3911H16.391H16.391H16.3909H16.3909H16.3909H16.3908H16.3908H16.3907H16.3907H16.3906H16.3906H16.3906H16.3905H16.3905H16.3904H16.3904H16.3903H16.3903H16.3903H16.3902H16.3902H16.3901H16.3901H16.39H16.39H16.39H16.3899H16.3899H16.3898H16.3898H16.3898H16.3897H16.3897H16.3896H16.3896H16.3896H16.3895H16.3895H16.3894H16.3894H16.3894H16.3893H16.3893H16.3892H16.3892H16.3892H16.3891H16.3891H16.389H16.389H16.389H16.3889H16.3889H16.3889H16.3888H16.3888H16.3887H16.3887H16.3887H16.3886H16.3886H16.3886H16.3885H16.3885H16.3884H16.3884H16.3884H16.3883H16.3883H16.3883H16.3882H16.3882H16.3882H16.3881H16.3881H16.3881H16.388H16.388H16.388H16.3879H16.3879H16.3878H16.3878H16.3878H16.3877H16.3877H16.3877H16.3876H16.3876H16.3876H16.3876H16.3875H16.3875H16.3875H16.3874H16.3874H16.3874H16.3873H16.3873H16.3873H16.3872H16.3872H16.3872H16.3871H16.3871H16.3871H16.3871H16.387H16.387H16.387H16.3869H16.3869H16.3868H16.3868H16.3867H16.3866H16.3866H16.3865H16.3865H16.3864H16.3864H16.3863H16.3863H16.3862H16.3862H16.3861H16.3861H16.386H16.386H16.3859H16.3859H16.3858H16.3858H16.3858H16.3857H16.3857H16.3856H16.3856H16.3856H16.3855H16.3855H16.3854H16.3854H16.3854H16.3853H16.3853H16.3853H16.3852H16.3852H16.3852H16.3851H16.3851H16.3851H16.385H16.385H16.385H16.3849H16.3849H16.3849H16.3848H16.3848H16.3848H16.3847H16.3847H16.3847H16.3846H10.5946C5.56244 84.4901 1.47461 80.3856 1.47461 75.3401V50.4501C1.47461 45.4055 5.57143 41.3101 10.5946 41.3101H48.2546C53.2998 41.3101 57.4146 45.4075 57.4146 50.4501V75.3401C57.4146 80.3836 53.3088 84.4901 48.2546 84.4901H42.4646C41.4108 84.4901 40.5646 83.6439 40.5646 82.5901V63.9701C40.5646 62.9162 41.4108 62.0701 42.4646 62.0701C43.5185 62.0701 44.3646 62.9162 44.3646 63.9701V80.1901V80.6901H44.8646H48.2546C51.2094 80.6901 53.6146 78.2975 53.6146 75.3401V50.4501C53.6146 47.5032 51.2101 45.1001 48.2546 45.1001H10.5946C7.65511 45.1001 5.27461 47.5073 5.27461 50.4501V75.3401C5.27461 78.2828 7.65511 80.6901 10.5946 80.6901H14.0046Z" fill="#1E1E1E" stroke="#1E1E1E"/>
<path d="M70.5451 29.17C62.6408 29.17 56.2051 22.7434 56.2051 14.84C56.2051 6.93614 62.6412 0.5 70.5451 0.5C78.4489 0.5 84.8851 6.93614 84.8851 14.84C84.8851 22.7434 78.4494 29.17 70.5451 29.17ZM81.0851 14.84C81.0851 9.02353 76.3509 4.3 70.5451 4.3C64.7389 4.3 60.0051 9.03386 60.0051 14.84C60.0051 20.6465 64.7293 25.37 70.5451 25.37C76.3606 25.37 81.0851 20.6568 81.0851 14.84Z" fill="#1E1E1E" stroke="#1E1E1E"/>
<path d="M85.4747 72.0399V72.5399H85.9747H89.3647C92.3195 72.5399 94.7247 70.1474 94.7247 67.1899V42.3099C94.7247 39.3631 92.3202 36.9599 89.3647 36.9599H51.7047C50.6508 36.9599 49.8047 36.1138 49.8047 35.0599C49.8047 34.0061 50.6508 33.1599 51.7047 33.1599H89.3647C94.4189 33.1599 98.5247 37.2664 98.5247 42.3099V67.1899C98.5247 72.2334 94.4189 76.3399 89.3647 76.3399H83.5747C82.5222 76.3399 81.6747 75.4851 81.6747 74.4399V55.8099C81.6747 54.7561 82.5208 53.9099 83.5747 53.9099C84.6285 53.9099 85.4747 54.7561 85.4747 55.8099V72.0399Z" fill="#1E1E1E" stroke="#1E1E1E"/>
</svg>
