<svg width="140" height="85" viewBox="0 0 140 85" fill="none" xmlns="http://www.w3.org/2000/svg">
<path d="M69.59 37.3199C61.6857 37.3199 55.25 30.8933 55.25 22.9899C55.25 15.086 61.6861 8.6499 69.59 8.6499C77.4939 8.6499 83.93 15.086 83.93 22.9899C83.93 30.8933 77.4943 37.3199 69.59 37.3199ZM80.13 22.9899C80.13 17.1738 75.4061 12.4499 69.59 12.4499C63.7735 12.4499 59.05 17.1841 59.05 22.9899C59.05 28.7964 63.7742 33.5199 69.59 33.5199C75.4055 33.5199 80.13 28.8067 80.13 22.9899Z" fill="#1E1E1E" stroke="#1E1E1E"/>
<path d="M54.1501 80.6901H54.6501V80.1901V63.9701C54.6501 62.9162 55.4963 62.0701 56.5501 62.0701C57.604 62.0701 58.4501 62.9162 58.4501 63.9701V82.5901C58.4501 83.6439 57.604 84.4901 56.5501 84.4901H56.5501H56.55H56.5499H56.5499H56.5498H56.5498H56.5497H56.5496H56.5496H56.5495H56.5495H56.5494H56.5494H56.5493H56.5492H56.5492H56.5491H56.5491H56.549H56.5489H56.5489H56.5488H56.5488H56.5487H56.5487H56.5486H56.5485H56.5485H56.5484H56.5484H56.5483H56.5482H56.5482H56.5481H56.5481H56.548H56.548H56.5479H56.5478H56.5478H56.5477H56.5477H56.5476H56.5475H56.5475H56.5474H56.5474H56.5473H56.5473H56.5472H56.5471H56.5471H56.547H56.547H56.5469H56.5468H56.5468H56.5467H56.5467H56.5466H56.5466H56.5465H56.5464H56.5464H56.5463H56.5463H56.5462H56.5462H56.5461H56.546H56.546H56.5459H56.5459H56.5458H56.5458H56.5457H56.5456H56.5456H56.5455H56.5455H56.5454H56.5454H56.5453H56.5452H56.5452H56.5451H56.5451H56.545H56.545H56.5449H56.5448H56.5448H56.5447H56.5447H56.5446H56.5446H56.5445H56.5444H56.5444H56.5443H56.5443H56.5442H56.5442H56.5441H56.5441H56.544H56.5439H56.5439H56.5438H56.5438H56.5437H56.5437H56.5436H56.5435H56.5435H56.5434H56.5434H56.5433H56.5433H56.5432H56.5432H56.5431H56.543H56.543H56.5429H56.5429H56.5428H56.5428H56.5427H56.5427H56.5426H56.5426H56.5425H56.5424H56.5424H56.5423H56.5423H56.5422H56.5422H56.5421H56.5421H56.542H56.542H56.5419H56.5418H56.5418H56.5417H56.5417H56.5416H56.5416H56.5415H56.5415H56.5414H56.5414H56.5413H56.5413H56.5412H56.5412H56.5411H56.541H56.541H56.5409H56.5409H56.5408H56.5408H56.5407H56.5407H56.5406H56.5406H56.5405H56.5405H56.5404H56.5404H56.5403H56.5403H56.5402H56.5402H56.5401H56.5401H56.54H56.54H56.5399H56.5399H56.5398H56.5397H56.5397H56.5396H56.5396H56.5395H56.5395H56.5394H56.5394H56.5393H56.5393H56.5392H56.5392H56.5391H56.5391H56.539H56.539H56.5389H56.5389H56.5388H56.5388H56.5387H56.5387H56.5386H56.5386H56.5386H56.5385H56.5385H56.5384H56.5384H56.5383H56.5383H56.5382H56.5382H56.5381H56.5381H56.538H56.538H56.5379H56.5379H56.5378H56.5378H56.5377H56.5377H56.5376H56.5376H56.5375H56.5375H56.5375H56.5374H56.5374H56.5373H56.5373H56.5372H56.5372H56.5371H56.5371H56.537H56.537H56.5369H56.5369H56.5369H56.5368H56.5368H56.5367H56.5367H56.5366H56.5366H56.5365H56.5365H56.5365H56.5364H56.5364H56.5363H56.5363H56.5362H56.5362H56.5361H56.5361H56.5361H56.536H56.536H56.5359H56.5359H56.5358H56.5358H56.5358H56.5357H56.5357H56.5356H56.5356H56.5356H56.5355H56.5355H56.5354H56.5354H56.5353H56.5353H56.5353H56.5352H56.5352H56.5351H56.5351H56.5351H56.535H56.535H56.5349H56.5349H56.5349H56.5348H56.5348H56.5347H56.5347H56.5347H56.5346H56.5346H56.5346H56.5345H56.5345H56.5344H56.5344H56.5344H56.5343H56.5343H56.5342H56.5342H56.5342H56.5341H56.5341H56.5341H56.534H56.534H56.534H56.5339H56.5339H56.5338H56.5338H56.5338H56.5337H56.5337H56.5337H56.5336H56.5336H56.5336H56.5335H56.5335H56.5335H56.5334H56.5334H56.5334H56.5333H56.5333H56.5333H56.5332H56.5332H56.5332H56.5331H56.5331H56.5331H56.533H56.533H56.533H56.5329H56.5329H56.5329H56.5328H56.5328H56.5328H56.5327H56.5327H56.5327H56.5326H56.5326H56.5326H56.5326H56.5325H56.5325H56.5325H56.5324H56.5324H56.5323H56.5323H56.5322H56.5322H56.5321H56.532H56.532H56.5319H56.5319H56.5318H56.5318H56.5317H56.5317H56.5316H56.5316H56.5315H56.5315H56.5314H56.5314H56.5314H56.5313H56.5313H56.5312H56.5312H56.5311H56.5311H56.5311H56.531H56.531H56.531H56.5309H56.5309H56.5308H56.5308H56.5308H56.5307H56.5307H56.5307H56.5307H56.5306H56.5306H56.5305H56.5305H56.5305H56.5304H56.5304H56.5304H56.5303H56.5303H56.5303H56.5302H56.5302H56.5302H56.5301H50.7401C45.7079 84.4901 41.6201 80.3856 41.6201 75.3401V50.4501C41.6201 45.4055 45.7169 41.3101 50.7401 41.3101H88.4001C93.4453 41.3101 97.5601 45.4075 97.5601 50.4501V75.3401C97.5601 80.3836 93.4543 84.4901 88.4001 84.4901H82.6101C81.5563 84.4901 80.7101 83.6439 80.7101 82.5901V63.9701C80.7101 62.9162 81.5563 62.0701 82.6101 62.0701C83.664 62.0701 84.5101 62.9162 84.5101 63.9701V80.1901V80.6901H85.0101H88.4001C91.3549 80.6901 93.7601 78.2975 93.7601 75.3401V50.4501C93.7601 47.5032 91.3556 45.1001 88.4001 45.1001H50.7401C47.8006 45.1001 45.4201 47.5073 45.4201 50.4501V75.3401C45.4201 78.2828 47.8006 80.6901 50.7401 80.6901H54.1501Z" fill="#1E1E1E" stroke="#1E1E1E"/>
<path d="M110.69 29.17C102.785 29.17 96.3496 22.7434 96.3496 14.84C96.3496 6.93614 102.786 0.5 110.69 0.5C118.593 0.5 125.03 6.93614 125.03 14.84C125.03 22.7434 118.594 29.17 110.69 29.17ZM121.23 14.84C121.23 9.02353 116.495 4.3 110.69 4.3C104.883 4.3 100.15 9.03386 100.15 14.84C100.15 20.6465 104.874 25.37 110.69 25.37C116.505 25.37 121.23 20.6568 121.23 14.84Z" fill="#1E1E1E" stroke="#1E1E1E"/>
<path d="M125.62 72.0399V72.5399H126.12H129.51C132.465 72.5399 134.87 70.1474 134.87 67.1899V42.3099C134.87 39.3631 132.466 36.9599 129.51 36.9599H91.8502C90.7963 36.9599 89.9502 36.1138 89.9502 35.0599C89.9502 34.0061 90.7963 33.1599 91.8502 33.1599H129.51C134.564 33.1599 138.67 37.2664 138.67 42.3099V67.1899C138.67 72.2334 134.564 76.3399 129.51 76.3399H123.72C122.668 76.3399 121.82 75.4851 121.82 74.4399V55.8099C121.82 54.7561 122.666 53.9099 123.72 53.9099C124.774 53.9099 125.62 54.7561 125.62 55.8099V72.0399Z" fill="#1E1E1E" stroke="#1E1E1E"/>
<path d="M42.8196 14.84C42.8196 22.7434 36.3839 29.17 28.4796 29.17C20.5754 29.17 14.1396 22.7434 14.1396 14.84C14.1396 6.93614 20.5758 0.5 28.4796 0.5C36.3835 0.5 42.8196 6.93614 42.8196 14.84ZM39.0196 14.84C39.0196 9.02386 34.2958 4.3 28.4796 4.3C22.6632 4.3 17.9396 9.03418 17.9396 14.84C17.9396 20.6465 22.6638 25.37 28.4796 25.37C34.2951 25.37 39.0196 20.6568 39.0196 14.84Z" fill="#1E1E1E" stroke="#1E1E1E"/>
<path d="M13.05 72.5499H13.55V72.0499V55.8199C13.55 54.7674 14.4048 53.9199 15.45 53.9199C16.5039 53.9199 17.35 54.7661 17.35 55.8199V74.4499C17.35 75.5038 16.5039 76.3499 15.45 76.3499H9.66C4.60581 76.3499 0.5 72.2434 0.5 67.1999V42.3199C0.5 37.2764 4.60581 33.1699 9.66 33.1699H47.32C48.3739 33.1699 49.22 34.0161 49.22 35.0699C49.22 36.1224 48.3652 36.9699 47.32 36.9699H9.66C6.7052 36.9699 4.3 39.3624 4.3 42.3199V67.1999C4.3 70.1467 6.70453 72.5499 9.66 72.5499H13.05Z" fill="#1E1E1E" stroke="#1E1E1E"/>
</svg>
