<svg width="140" height="110" viewBox="0 0 140 110" fill="none" xmlns="http://www.w3.org/2000/svg">
<path d="M69.7602 62.19C61.8559 62.19 55.4202 55.7634 55.4202 47.86C55.4202 39.9562 61.8563 33.52 69.7602 33.52C77.664 33.52 84.1002 39.9562 84.1002 47.86C84.1002 55.7634 77.6645 62.19 69.7602 62.19ZM80.3002 47.86C80.3002 42.0439 75.5763 37.32 69.7602 37.32C63.9437 37.32 59.2202 42.0542 59.2202 47.86C59.2202 53.6665 63.9443 58.39 69.7602 58.39C75.5757 58.39 80.3002 53.6768 80.3002 47.86Z" fill="#1E1E1E" stroke="#1E1E1E"/>
<path d="M54.3203 105.56H54.8203V105.06V88.8399C54.8203 87.7861 55.6664 86.9399 56.7203 86.9399C57.7741 86.9399 58.6203 87.7861 58.6203 88.8399V107.46C58.6203 108.514 57.7741 109.36 56.7203 109.36H56.7202H56.7202H56.7201H56.72H56.72H56.7199H56.7199H56.7198H56.7198H56.7197H56.7196H56.7196H56.7195H56.7195H56.7194H56.7193H56.7193H56.7192H56.7192H56.7191H56.7191H56.719H56.7189H56.7189H56.7188H56.7188H56.7187H56.7186H56.7186H56.7185H56.7185H56.7184H56.7184H56.7183H56.7182H56.7182H56.7181H56.7181H56.718H56.7179H56.7179H56.7178H56.7178H56.7177H56.7177H56.7176H56.7175H56.7175H56.7174H56.7174H56.7173H56.7172H56.7172H56.7171H56.7171H56.717H56.717H56.7169H56.7168H56.7168H56.7167H56.7167H56.7166H56.7166H56.7165H56.7164H56.7164H56.7163H56.7163H56.7162H56.7162H56.7161H56.716H56.716H56.7159H56.7159H56.7158H56.7157H56.7157H56.7156H56.7156H56.7155H56.7155H56.7154H56.7153H56.7153H56.7152H56.7152H56.7151H56.7151H56.715H56.715H56.7149H56.7148H56.7148H56.7147H56.7147H56.7146H56.7146H56.7145H56.7144H56.7144H56.7143H56.7143H56.7142H56.7142H56.7141H56.714H56.714H56.7139H56.7139H56.7138H56.7138H56.7137H56.7137H56.7136H56.7135H56.7135H56.7134H56.7134H56.7133H56.7133H56.7132H56.7132H56.7131H56.713H56.713H56.7129H56.7129H56.7128H56.7128H56.7127H56.7127H56.7126H56.7126H56.7125H56.7124H56.7124H56.7123H56.7123H56.7122H56.7122H56.7121H56.7121H56.712H56.712H56.7119H56.7119H56.7118H56.7117H56.7117H56.7116H56.7116H56.7115H56.7115H56.7114H56.7114H56.7113H56.7113H56.7112H56.7112H56.7111H56.7111H56.711H56.7109H56.7109H56.7108H56.7108H56.7107H56.7107H56.7106H56.7106H56.7105H56.7105H56.7104H56.7104H56.7103H56.7103H56.7102H56.7102H56.7101H56.7101H56.71H56.71H56.7099H56.7099H56.7098H56.7098H56.7097H56.7097H56.7096H56.7096H56.7095H56.7095H56.7094H56.7094H56.7093H56.7093H56.7092H56.7092H56.7091H56.7091H56.709H56.709H56.7089H56.7089H56.7088H56.7088H56.7087H56.7087H56.7086H56.7086H56.7085H56.7085H56.7084H56.7084H56.7083H56.7083H56.7082H56.7082H56.7081H56.7081H56.708H56.708H56.7079H56.7079H56.7079H56.7078H56.7078H56.7077H56.7077H56.7076H56.7076H56.7075H56.7075H56.7074H56.7074H56.7073H56.7073H56.7073H56.7072H56.7072H56.7071H56.7071H56.707H56.707H56.7069H56.7069H56.7068H56.7068H56.7068H56.7067H56.7067H56.7066H56.7066H56.7065H56.7065H56.7064H56.7064H56.7064H56.7063H56.7063H56.7062H56.7062H56.7061H56.7061H56.7061H56.706H56.706H56.7059H56.7059H56.7058H56.7058H56.7058H56.7057H56.7057H56.7056H56.7056H56.7056H56.7055H56.7055H56.7054H56.7054H56.7053H56.7053H56.7053H56.7052H56.7052H56.7051H56.7051H56.7051H56.705H56.705H56.705H56.7049H56.7049H56.7048H56.7048H56.7048H56.7047H56.7047H56.7046H56.7046H56.7046H56.7045H56.7045H56.7045H56.7044H56.7044H56.7043H56.7043H56.7043H56.7042H56.7042H56.7042H56.7041H56.7041H56.704H56.704H56.704H56.7039H56.7039H56.7039H56.7038H56.7038H56.7038H56.7037H56.7037H56.7037H56.7036H56.7036H56.7036H56.7035H56.7035H56.7035H56.7034H56.7034H56.7034H56.7033H56.7033H56.7033H56.7032H56.7032H56.7032H56.7031H56.7031H56.7031H56.703H56.703H56.703H56.7029H56.7029H56.7029H56.7028H56.7028H56.7028H56.7028H56.7027H56.7027H56.7027H56.7026H56.7026H56.7026H56.7025H56.7025H56.7025H56.7025H56.7024H56.7024H56.7023H56.7023H56.7022H56.7022H56.7021H56.7021H56.702H56.702H56.7019H56.7019H56.7018H56.7018H56.7017H56.7017H56.7016H56.7016H56.7015H56.7015H56.7015H56.7014H56.7014H56.7013H56.7013H56.7013H56.7012H56.7012H56.7011H56.7011H56.7011H56.701H56.701H56.701H56.7009H56.7009H56.7009H56.7008H56.7008H56.7008H56.7007H56.7007H56.7007H56.7006H56.7006H56.7005H56.7005H56.7005H56.7005H56.7004H56.7004H56.7004H56.7003H56.7003H50.9103C45.8781 109.36 41.7903 105.255 41.7903 100.21V75.3199C41.7903 70.2754 45.8871 66.1799 50.9103 66.1799H88.5703C93.6155 66.1799 97.7303 70.2774 97.7303 75.3199V100.21C97.7303 105.253 93.6245 109.36 88.5703 109.36H82.7803C81.7264 109.36 80.8803 108.514 80.8803 107.46V88.8399C80.8803 87.7861 81.7264 86.9399 82.7803 86.9399C83.8341 86.9399 84.6803 87.7861 84.6803 88.8399V105.06V105.56H85.1803H88.5703C91.5251 105.56 93.9303 103.167 93.9303 100.21V75.3199C93.9303 72.3731 91.5258 69.9699 88.5703 69.9699H50.9103C47.9708 69.9699 45.5903 72.3772 45.5903 75.3199V100.21C45.5903 103.153 47.9708 105.56 50.9103 105.56H54.3203Z" fill="#1E1E1E" stroke="#1E1E1E"/>
<path d="M110.86 54.0401C102.955 54.0401 96.5198 47.6135 96.5198 39.7101C96.5198 31.8063 102.956 25.3701 110.86 25.3701C118.764 25.3701 125.2 31.8063 125.2 39.7101C125.2 47.6135 118.764 54.0401 110.86 54.0401ZM121.4 39.7101C121.4 33.8936 116.666 29.1701 110.86 29.1701C105.054 29.1701 100.32 33.904 100.32 39.7101C100.32 45.5166 105.044 50.2401 110.86 50.2401C116.675 50.2401 121.4 45.5269 121.4 39.7101Z" fill="#1E1E1E" stroke="#1E1E1E"/>
<path d="M84.0904 14.84C84.0904 22.7434 77.6547 29.17 69.7504 29.17C61.8461 29.17 55.4104 22.7434 55.4104 14.84C55.4104 6.93614 61.8465 0.5 69.7504 0.5C77.6543 0.5 84.0904 6.93614 84.0904 14.84ZM80.2904 14.84C80.2904 9.02386 75.5665 4.3 69.7504 4.3C63.9339 4.3 59.2104 9.03418 59.2104 14.84C59.2104 20.6465 63.9346 25.37 69.7504 25.37C75.5659 25.37 80.2904 20.6568 80.2904 14.84Z" fill="#1E1E1E" stroke="#1E1E1E"/>
<path d="M125.79 96.91V97.41H126.29H129.68C132.635 97.41 135.04 95.0175 135.04 92.06V67.18C135.04 64.2332 132.636 61.83 129.68 61.83H92.0204C90.9665 61.83 90.1204 60.9839 90.1204 59.93C90.1204 58.8762 90.9665 58.03 92.0204 58.03H129.68C134.735 58.03 138.84 62.1365 138.84 67.18V92.06C138.84 97.1035 134.735 101.21 129.68 101.21H123.89C122.838 101.21 121.99 100.355 121.99 99.31V80.68C121.99 79.6262 122.837 78.78 123.89 78.78C124.944 78.78 125.79 79.6262 125.79 80.68V96.91Z" fill="#1E1E1E" stroke="#1E1E1E"/>
<path d="M42.9898 39.7101C42.9898 47.6135 36.5541 54.0401 28.6498 54.0401C20.7455 54.0401 14.3098 47.6135 14.3098 39.7101C14.3098 31.8063 20.746 25.3701 28.6498 25.3701C36.5537 25.3701 42.9898 31.8063 42.9898 39.7101ZM39.1898 39.7101C39.1898 33.894 34.466 29.1701 28.6498 29.1701C22.8333 29.1701 18.1098 33.9043 18.1098 39.7101C18.1098 45.5166 22.834 50.2401 28.6498 50.2401C34.4653 50.2401 39.1898 45.5269 39.1898 39.7101Z" fill="#1E1E1E" stroke="#1E1E1E"/>
<path d="M13.2202 97.42H13.7202V96.92V80.69C13.7202 79.6375 14.575 78.79 15.6202 78.79C16.674 78.79 17.5202 79.6362 17.5202 80.69V99.32C17.5202 100.374 16.674 101.22 15.6202 101.22H9.83017C4.77597 101.22 0.670166 97.1136 0.670166 92.07V67.19C0.670166 62.1465 4.77597 58.04 9.83017 58.04H47.4902C48.544 58.04 49.3902 58.8862 49.3902 59.94C49.3902 60.9925 48.5354 61.84 47.4902 61.84H9.83017C6.87536 61.84 4.47017 64.2326 4.47017 67.19V92.07C4.47017 95.0168 6.87469 97.42 9.83017 97.42H13.2202Z" fill="#1E1E1E" stroke="#1E1E1E"/>
</svg>
