<svg width="73" height="78" viewBox="0 0 73 78" fill="none" xmlns="http://www.w3.org/2000/svg">
<path d="M1 44.2746V73.9481C1 75.6233 2.3601 77 4.05194 77H8.72938C10.4046 77 11.7813 75.6399 11.7813 73.9481V66.9319C11.7813 65.2567 13.1414 63.88 14.8333 63.88H57.7263C59.4016 63.88 60.7783 65.2401 60.7783 66.9319V73.9481C60.7783 75.6233 62.1384 77 63.8302 77H68.5076C70.1829 77 71.5596 75.6399 71.5596 73.9481V44.2746C71.5596 38.3365 66.7329 33.5098 60.7948 33.5098H11.7647C8.74596 33.5098 6.92143 30.2257 8.39764 27.6713L14.4849 17.1222C15.9612 14.5679 18.6814 12.9921 21.6338 12.9921H34.0572M49.4164 44.2746C45.9332 47.7743 41.1894 49.7316 36.2466 49.7316C31.3038 49.7316 26.5766 47.7743 23.0768 44.2746M60.7617 7.63466H71.5264M60.7617 18.3662H71.5264M39.7796 7.35268V18.6482M45.5517 5.44522V20.5557M11.7647 40.3767C13.921 40.3767 15.6626 42.1183 15.6626 44.2746C15.6626 46.4308 13.921 48.1724 11.7647 48.1724C9.60847 48.1724 7.86687 46.4308 7.86687 44.2746C7.86687 42.1183 9.60847 40.3767 11.7647 40.3767ZM60.7617 40.3767C62.9179 40.3767 64.6595 42.1183 64.6595 44.2746C64.6595 46.4308 62.9179 48.1724 60.7617 48.1724C58.6054 48.1724 56.8638 46.4308 56.8638 44.2746C56.8638 42.1183 58.6054 40.3767 60.7617 40.3767ZM52.3191 24.9843C51.2409 24.9843 50.196 24.553 49.433 23.79C45.9498 20.3069 41.206 18.333 36.2632 18.333C35.0524 18.333 34.0572 17.3378 34.0572 16.127V9.85727C34.0572 8.64644 35.0358 7.65124 36.2632 7.65124C41.206 7.65124 45.9332 5.69402 49.433 2.19424C50.196 1.43125 51.2409 1 52.3191 1H58.5556C59.7665 1 60.7617 1.9952 60.7617 3.20602V22.7617C60.7617 23.9725 59.7665 24.9677 58.5556 24.9677H52.3191V24.9843Z" stroke="black" stroke-width="2" stroke-linecap="round" stroke-linejoin="round"/>
</svg>
