<svg width="95" height="71" viewBox="0 0 95 71" fill="none" xmlns="http://www.w3.org/2000/svg">
<path d="M85.78 1H1V62.73H85.78V1Z" stroke="#1E1E1E" stroke-width="2" stroke-linecap="round" stroke-linejoin="round"/>
<path d="M93.2403 40.5999H85.7803V23.1299C89.9003 23.1299 93.2403 26.4699 93.2403 30.5899V40.5999Z" stroke="#1E1E1E" stroke-width="2" stroke-linecap="round" stroke-linejoin="round"/>
<path d="M19.5898 62.73H12.5898V69.73H19.5898V62.73Z" stroke="#1E1E1E" stroke-width="2" stroke-linecap="round" stroke-linejoin="round"/>
<path d="M7.62988 69.73H24.1999" stroke="#1E1E1E" stroke-width="2" stroke-linecap="round" stroke-linejoin="round"/>
<path d="M73.9404 62.73H66.9404V69.73H73.9404V62.73Z" stroke="#1E1E1E" stroke-width="2" stroke-linecap="round" stroke-linejoin="round"/>
<path d="M61.9805 69.73H78.5505" stroke="#1E1E1E" stroke-width="2" stroke-linecap="round" stroke-linejoin="round"/>
<path d="M37.5296 31.87C37.5296 34.94 35.0396 37.44 31.9596 37.44C28.8796 37.44 26.3896 34.95 26.3896 31.87C26.3896 28.79 28.8796 26.3 31.9596 26.3C35.0396 26.3 37.5296 28.79 37.5296 31.87Z" stroke="#1E1E1E" stroke-width="2" stroke-linecap="round" stroke-linejoin="round"/>
<path d="M37.0692 53.541C49.0343 50.717 56.4446 38.728 53.6206 26.7629C50.7966 14.7978 38.8076 7.38747 26.8425 10.2115C14.8774 13.0355 7.46706 25.0245 10.2911 36.9896C13.1151 48.9547 25.1041 56.365 37.0692 53.541Z" stroke="#1E1E1E" stroke-width="2" stroke-linecap="round" stroke-linejoin="round"/>
<path d="M31.9596 48.57C41.1828 48.57 48.6596 41.0932 48.6596 31.87C48.6596 22.6468 41.1828 15.17 31.9596 15.17C22.7365 15.17 15.2596 22.6468 15.2596 31.87C15.2596 41.0932 22.7365 48.57 31.9596 48.57Z" stroke="#1E1E1E" stroke-width="2" stroke-linecap="round" stroke-linejoin="round"/>
<path d="M31.9596 43C38.1065 43 43.0896 38.0169 43.0896 31.87C43.0896 25.7231 38.1065 20.74 31.9596 20.74C25.8127 20.74 20.8296 25.7231 20.8296 31.87C20.8296 38.0169 25.8127 43 31.9596 43Z" stroke="#1E1E1E" stroke-width="2" stroke-linecap="round" stroke-linejoin="round"/>
<path d="M27.1396 29.08L16.0096 48.36" stroke="#1E1E1E" stroke-width="2" stroke-linecap="round" stroke-linejoin="round"/>
<path d="M27.1396 34.65L38.2696 53.93" stroke="#1E1E1E" stroke-width="2" stroke-linecap="round" stroke-linejoin="round"/>
<path d="M31.9596 37.43H54.2196" stroke="#1E1E1E" stroke-width="2" stroke-linecap="round" stroke-linejoin="round"/>
<path d="M36.7797 34.65L47.9097 15.37" stroke="#1E1E1E" stroke-width="2" stroke-linecap="round" stroke-linejoin="round"/>
<path d="M36.7797 29.08L25.6497 9.8" stroke="#1E1E1E" stroke-width="2" stroke-linecap="round" stroke-linejoin="round"/>
<path d="M31.9596 26.3H9.69958" stroke="#1E1E1E" stroke-width="2" stroke-linecap="round" stroke-linejoin="round"/>
<path d="M62.9199 35.29V38.93" stroke="#1E1E1E" stroke-width="2" stroke-linecap="round" stroke-linejoin="round"/>
<path d="M62.9199 44.26V44.9" stroke="#1E1E1E" stroke-width="2" stroke-linecap="round" stroke-linejoin="round"/>
<path d="M62.9199 2.28003V30.04" stroke="#1E1E1E" stroke-width="2" stroke-linecap="round" stroke-linejoin="round"/>
<path d="M62.9199 62.73V50.23" stroke="#1E1E1E" stroke-width="2" stroke-linecap="round" stroke-linejoin="round"/>
<path d="M62.9199 44.9V44.26" stroke="#1E1E1E" stroke-width="2" stroke-linecap="round" stroke-linejoin="round"/>
<path d="M70.2598 14.78H78.5498" stroke="#1E1E1E" stroke-width="2" stroke-linecap="round" stroke-linejoin="round"/>
<path d="M70.2598 20.6799H78.5498" stroke="#1E1E1E" stroke-width="2" stroke-linecap="round" stroke-linejoin="round"/>
<path d="M70.2598 26.5901H78.5498" stroke="#1E1E1E" stroke-width="2" stroke-linecap="round" stroke-linejoin="round"/>
<path d="M70.2598 32.5H78.5498" stroke="#1E1E1E" stroke-width="2" stroke-linecap="round" stroke-linejoin="round"/>
<path d="M70.2598 38.4099H78.5498" stroke="#1E1E1E" stroke-width="2" stroke-linecap="round" stroke-linejoin="round"/>
<path d="M70.2598 44.3201H78.5498" stroke="#1E1E1E" stroke-width="2" stroke-linecap="round" stroke-linejoin="round"/>
<path d="M70.2598 50.22H78.5498" stroke="#1E1E1E" stroke-width="2" stroke-linecap="round" stroke-linejoin="round"/>
<path d="M55.6697 9.00996C55.7525 9.00996 55.8197 8.9428 55.8197 8.85996C55.8197 8.77712 55.7525 8.70996 55.6697 8.70996C55.5868 8.70996 55.5197 8.77712 55.5197 8.85996C55.5197 8.9428 55.5868 9.00996 55.6697 9.00996Z" stroke="#1E1E1E" stroke-width="2" stroke-linecap="round" stroke-linejoin="round"/>
<path d="M8.24961 9.00996C8.33245 9.00996 8.39961 8.9428 8.39961 8.85996C8.39961 8.77712 8.33245 8.70996 8.24961 8.70996C8.16677 8.70996 8.09961 8.77712 8.09961 8.85996C8.09961 8.9428 8.16677 9.00996 8.24961 9.00996Z" stroke="#1E1E1E" stroke-width="2" stroke-linecap="round" stroke-linejoin="round"/>
<path d="M55.6697 55.02C55.7525 55.02 55.8197 54.9528 55.8197 54.87C55.8197 54.7871 55.7525 54.72 55.6697 54.72C55.5868 54.72 55.5197 54.7871 55.5197 54.87C55.5197 54.9528 55.5868 55.02 55.6697 55.02Z" stroke="#1E1E1E" stroke-width="2" stroke-linecap="round" stroke-linejoin="round"/>
<path d="M8.24961 55.02C8.33245 55.02 8.39961 54.9528 8.39961 54.87C8.39961 54.7871 8.33245 54.72 8.24961 54.72C8.16677 54.72 8.09961 54.7871 8.09961 54.87C8.09961 54.9528 8.16677 55.02 8.24961 55.02Z" stroke="#1E1E1E" stroke-width="2" stroke-linecap="round" stroke-linejoin="round"/>
</svg>
